<?xml version="1.0" encoding="UTF-8"?>
<svg id="Layer_1" data-name="Layer 1" xmlns="http://www.w3.org/2000/svg" viewBox="0 0 500 500">
  <defs>
    <style>
      .cls-1 {
        stroke-width: 0px;
      }
    </style>
  </defs>
  <g id="Ahcz90.tif">
    <g>
      <path class="cls-1" d="m381.52,251.23c.58,34.52-1.59,64.59-1.06,94.69.17,9.8.63,19.56-.93,29.28-2.39,14.88-9.58,26.32-23.39,33.27-13.08,6.59-27.1,9.73-41.44,11.55-18.77,2.37-37.65,3.13-56.55,2.58-23.5-.68-47.01-1.33-70.47-2.71-12.83-.75-25.59-2.95-37.6-8.03-18.56-7.85-26.93-23.24-29.04-42.03-2.62-23.39-2.12-46.97-1.79-70.48.18-12.58,2.18-25.09,1.6-37.71-.8-17.61-1.61-35.22-2.22-52.83-.43-12.45-.69-24.91,2.84-37.08,3.23-11.11,9.66-19.76,19.42-25.96,5.56-3.53,11.04-7.18,16.69-10.55,3.29-1.96,3.7-5.04,3.99-8.28.16-1.76-1.32-2.25-2.49-3.01-1.8-1.18-3.52-2.56-3.18-5,.31-2.21,2.03-3.28,4.01-3.84,3.34-.94,3.07-1.65.36-3.59-3.53-2.53-2.56-6.55-1.67-10.03.58-2.27.71-4.17-.13-6.44-1.95-5.26.3-9.5,5.85-10.85,10.48-2.55,21.18-3.81,31.88-4.99,21.35-2.35,42.78-2.11,64.18-1.59,20.69.5,41.42.75,62.06,2.51,6.27.53,12.45,1.86,18.32,4.29,3.96,1.64,5.46,4.6,4.77,8.74-.64,3.83-1.46,7.49.77,11.31,1.39,2.38-.51,4.53-2.63,5.94-2.53,1.7-2.75,3.1-.08,5.06,3.56,2.62,3.67,5.75.11,8.13-3.67,2.45-2.33,4.61-.15,6.73,5.11,4.99,10.38,9.82,15.56,14.73,9.34,8.86,16.32,19.14,19.2,31.9,1.76,7.81,2.66,15.75,2.78,23.7.28,18.34-.5,36.69.43,50.61ZM197.3,113.01c2.52-1.41,4.09-1.07,5.6-1.09,10.92-.18,21.84-.27,32.76-.49,29.12-.59,58.26-.36,87.35-2.08,5.15-.3,10.33-.64,15.33-2.11,1.4-.41,3.65-1.08,2.34-3.01-2.37-3.49-.54-6.83.09-9.98.7-3.52-.2-5.25-3.33-6.49-5.53-2.18-11.3-3.52-17.16-3.78-22.52-1.02-45.05-2.12-67.58-2.45-23.38-.34-46.77.58-70.03,3.27-5.55.64-11.09,1.56-16.54,2.75-2.1.46-5.76,1.46-4.42,4.34,2.09,4.5.9,8.75.7,13.11-.14,3.05,1.07,4.5,4.12,4.36,4.08-.19,8.1.34,12.12.89.94.13,2.24-.03,2.15,1.36-.08,1.22-1.32,1.33-2.28,1.35-2.66.08-5.32.04-7.98.1-1.24.03-3.03-.27-3.41,1.01-.87,2.91-3.41,4.04-5.77,5.67,2.86,1.96,5.76,2.43,8.6,3.13,1.53.38,3.97.24,3.76,2.43-.19,1.89-2.45,1.51-3.91,1.41-2.53-.18-3.93.64-4.28,3.32-.32,2.44-1.92,4.24-3.56,6.04-5.16,5.67-11.58,9.7-17.75,14.05-4.14,2.92-8,6.11-11.03,10.24-6.92,9.45-9.23,20.26-9.41,31.67-.29,18.35,1.04,36.66,1.53,55,.92,34.18-1.13,68.34-.5,102.51.18,9.78.36,19.62,3.21,29.12,4.8,15.99,13.61,27.28,31.01,31.91,27.73,7.39,56.06,6.99,84.21,8.05,22.2.83,44.51-.85,66.65-3.31,15.77-1.75,31.23-4.88,45.4-12.62,8.28-4.52,13.88-11.11,16.74-20.13,2.44-7.69,3.46-15.58,3.51-23.58.17-23.39.32-46.77.64-70.16.46-32.89,1.55-65.82-1.41-98.68-1.34-14.86-5.99-28.1-17.12-38.6-3.76-3.55-7.29-7.38-10.75-11.23-2.98-3.32-6.2-6.57-8.39-10.38-1.48-2.57-2.46-4.51-5.74-4.1-.78.1-1.85-.05-1.81-1.2.03-.78.88-1,1.55-1.18,2.02-.54,4.13-.85,6.06-1.62,2.37-.94,3.26-2.33.37-3.97-.93-.53-2.55-1.06-2.12-2.26,1.38-3.88-1.18-2.64-2.95-2.47-15.9,1.5-31.86,2.25-47.82,2.31-19.75.08-39.5-.33-59.25-.54-4.9-.05-9.84.16-14.7-.31-4.59-.44-9.36.18-14.8-1.61Z"/>
      <path class="cls-1" d="m188.75,158.07c4.32-2.5,8.18-2.48,11.81-3.04,24.07-3.68,48.23-6.53,72.65-5.99,16.92.38,33.82,1.14,50.57,3.79.83.13,1.67.22,2.48.43.94.24,2.15.53,2.09,1.69-.07,1.31-1.39,1.24-2.31,1.19-5.58-.3-11.17-.49-16.73-1.08-3.49-.37-6.97-.52-10.46-.6-18.47-.39-36.95-.81-55.39.15-15.61.81-31.22,1.91-46.75,3.86-2.26.28-4.59.71-7.94-.39Z"/>
      <path class="cls-1" d="m263.37,364.66c-1.39,2-2.67,1.02-3.79.97-28.66-1.32-57.07-.1-84.77,8.29-4.43,1.34-8.75,3.05-12.42,5.98-3.63,2.91-3.62,5.1-.12,8.22,3.17,2.83,7.05,4.52,10.72,6.54.81.45,2.09.96,1.66,2.09-.57,1.49-1.95.74-2.89.37-4.04-1.6-7.98-3.43-11.56-5.93-7-4.88-7.06-10.79-.07-15.85,6.36-4.6,13.65-7.04,21.21-8.74,25.53-5.72,51.27-6.4,77.16-3.1,1.48.19,2.93.67,4.87,1.14Z"/>
      <path class="cls-1" d="m369.16,250.34c-.01,15.1.86,30.22-.43,45.31-.07.84-.15,1.67-.29,2.5-.15.88-.59,1.65-1.57,1.67-1.08.02-1.31-.87-1.43-1.72-.25-1.8-.6-3.6-.67-5.41-1.18-29.36-1.41-58.73-.03-88.09.16-3.35.5-6.69.79-10.03.07-.79-.08-1.92.97-2.04,1.41-.17,1.43,1.22,1.5,2.05.46,5.29,1.05,10.59,1.12,15.89.16,13.29.05,26.58.05,39.88Z"/>
      <path class="cls-1" d="m177.32,90.07c.65-1.35,1.55-1.09,2.35-1.08,22.24.27,44.5-.02,66.72,1.18,17.76.95,35.52.79,53.29.73,9.39-.03,18.66-1.58,28.02-1.89,1.31-.04,3.32-.93,3.54.93.22,1.91-2.02,1.45-3.25,1.7-10.17,2.04-20.5,2.71-30.81,2.94-27.84.64-55.63-1.18-83.43-2.18-9.78-.35-19.58,0-29.34-.92-2.36-.22-4.74-.13-7.08-1.41Z"/>
      <path class="cls-1" d="m216.68,127.4c4.77-.39,9.04-.98,13.33-1.06,23.2-.42,46.4-.72,69.6-1,1.4-.02,3.83-.75,4.01.92.22,2.07-2.35,1.46-3.64,1.56-10.44.84-20.89,1.77-31.35,2.14-16.05.56-32.12.74-48.16-.69-1.23-.11-2.52.02-3.78-1.88Z"/>
      <path class="cls-1" d="m134.34,194.89c.47,5.85,1.02,10.77,1.24,15.71.69,15.53,1.19,31.07.79,46.62-.06,2.51-.43,5.01-.72,7.51-.1.86-.46,1.76-1.45,1.79-1.32.05-1.47-1.06-1.55-2.05-.28-3.35-.64-6.69-.74-10.04-.51-17.77-1-35.55-.12-53.32.1-1.91.07-3.92,2.55-6.23Z"/>
      <path class="cls-1" d="m216.1,404.04c30.06,1.03,60.13,2.35,90.18-.42-7.79,6.3-81.09,6.29-90.18.42Z"/>
      <path class="cls-1" d="m289.15,369.85c.79-1.43,2.16-1.26,3.36-1.19,14.14.89,28.1,2.92,41.54,7.6,2.62.91,5.14,2.22,7.55,3.62,3.17,1.84,5.81,4.39,4.97,8.43-.9,4.29-4.01,6.93-8.38,9.37.25-3.26,2.28-4.33,3.47-5.9,2.87-3.78,2.62-6.07-1.36-8.69-6.2-4.08-13.34-5.75-20.41-7.42-8.7-2.05-17.47-3.79-26.41-4.49-1.49-.12-3.07-.22-4.31-1.34Z"/>
      <path class="cls-1" d="m250.25,134.88c4.21-.3,8.3-.83,12.39-.84,15.27-.04,30.53.06,45.73-1.78.28-.03.56-.07.84-.04,1.19.09,2.95-.41,3.1,1.25.11,1.19-1.5,1.41-2.6,1.62-1.1.21-2.2.41-3.31.58-17.82,2.83-35.71,2.44-53.61,1.01-.94-.08-2.01-.08-2.54-1.8Z"/>
      <path class="cls-1" d="m208.51,138.41c-10.01-.77-19.58-.42-28.8-3.18-1.7-.51-4.73-.57-4.22-2.96.39-1.82,2.94-.27,4.48-.18,11.85.74,23.69,1.59,35.53,2.45,1.32.1,3.33-.17,3.33,1.68,0,1.96-2.09,1.41-3.35,1.58-2.49.33-5,.45-6.98.61Z"/>
      <path class="cls-1" d="m173.75,101.69c.93-1.79,2.51-1.27,3.8-1.28,14.13-.08,28.26-.1,42.4-.14.7,0,1.41,0,2.09.09.94.14,2.14.17,2.13,1.48,0,1.02-1.02,1.23-1.85,1.35-1.79.28-3.6.66-5.4.69-13,.22-26.01.64-38.98-.75-1.51-.16-3.03-.27-4.19-1.45Z"/>
      <path class="cls-1" d="m284.74,101.7c.64-1.55,1.73-1.41,2.64-1.44,15.34-.62,30.67-1.23,46.01-1.75,1.32-.04,3.61-.82,3.67,1.4.04,1.65-2.06,1.45-3.4,1.65-15.85,2.46-31.74,1.28-47.63.67-.38-.01-.75-.3-1.3-.54Z"/>
      <path class="cls-1" d="m363.64,321.82c.17-2.77.27-5.55.55-8.32.08-.74.46-1.69,1.51-1.72.89-.03,1.1.76,1.25,1.42,1.2,5.3,2.41,10.62,1.09,16.07-.32,1.32-.68,3-2.56,2.68-1.5-.26-1.63-1.74-1.65-3.02-.04-2.37-.01-4.74-.01-7.11h-.17Z"/>
      <path class="cls-1" d="m185.48,127.84c1.21-1.55,2.83-1.53,4.3-1.45,5.13.28,10.25.66,15.36,1.12.88.08,2.15.37,2.16,1.58,0,1.47-1.37,1.66-2.42,1.68-6.13.08-12.22-.42-18.19-1.89-.45-.11-.79-.67-1.2-1.04Z"/>
    </g>
  </g>
</svg>